<svg width="193" height="188" viewBox="0 0 193 188" fill="none" xmlns="http://www.w3.org/2000/svg">
<g clip-path="url(#clip0)">
<path d="M110.22 93.8199C110.22 88.9956 108.304 84.3689 104.892 80.9576C101.481 77.5463 96.8543 75.6299 92.03 75.6299C87.2057 75.6299 82.579 77.5463 79.1677 80.9576C75.7564 84.3689 73.84 88.9956 73.84 93.8199C73.8452 98.6364 75.7596 103.254 79.1635 106.662C82.5675 110.07 87.1834 111.989 92 112H110.18V93.8399L110.22 93.8199Z" fill="white"/>
<path d="M172.12 173.83V93.9C172.125 80.5007 168.758 67.3157 162.329 55.5597C155.899 43.8037 146.615 33.8549 135.33 26.63L135.22 54.87L135.09 88.76L135.4 137.06H94.89C93.95 137.12 93 137.17 92.04 137.17C85.5591 137.17 79.1607 135.717 73.3159 132.917C67.4711 130.117 62.3289 126.042 58.2679 120.991C54.207 115.94 51.3307 110.043 49.851 103.733C48.3713 97.4234 48.3258 90.8621 49.7179 84.5325C51.11 78.203 53.9043 72.2663 57.8948 67.1597C61.8854 62.0531 66.9706 57.9068 72.7761 55.026C78.5815 52.1452 84.9591 50.6034 91.4394 50.5141C97.9197 50.4248 104.337 51.7902 110.22 54.51L110.37 16.08C99.4002 13.5144 88.012 13.297 76.9524 15.4421C65.8927 17.5872 55.4115 22.0463 46.1963 28.5268C36.9811 35.0074 29.2401 43.363 23.4811 53.0455C17.7222 62.7281 14.0753 73.5188 12.7799 84.7098C11.4844 95.9008 12.5695 107.239 15.9641 117.981C19.3587 128.724 24.9861 138.627 32.4771 147.041C39.968 155.456 49.1533 162.191 59.4304 166.806C69.7075 171.421 80.8442 173.812 92.11 173.82H172.11L172.12 173.83Z" fill="white"/>
</g>
<defs>
<clipPath id="clip0">
<rect width="1066.43" height="187.82" fill="white"/>
</clipPath>
</defs>
</svg>
