<?xml version="1.0" encoding="UTF-8"?>
<svg width="111px" height="62px" viewBox="0 0 111 62" version="1.1" xmlns="http://www.w3.org/2000/svg" xmlns:xlink="http://www.w3.org/1999/xlink">
    <title>16E54AE0-129D-4010-A3B3-5E158329A4DC</title>
    <g id="Page-1" stroke="none" stroke-width="1" fill="none" fill-rule="evenodd">
        <g id="Dashboard" transform="translate(-665.000000, -163.000000)">
            <g id="logo-dad" transform="translate(665.000000, 163.000000)">
                <path d="M55.3312808,8.00000012e-05 L31.1276805,55.7572808 L39.4528806,55.7572808 L44.2096807,44.5912807 L66.078881,44.5912807 L70.7700811,55.7572808 L79.3592812,55.7572808 L55.3312808,8.00000012e-05 Z M55.1116808,18.8900803 L63.1060809,37.3896806 L47.1828807,37.3896806 L55.1116808,18.8900803 Z" id="Fill-1" fill="#55B8B3"></path>
                <path d="M24.5312404,49.9607207 L34.9312405,26.0999204 L18.6476403,26.0999204 C11.2788402,26.0999204 6.4664401,31.1627205 6.4664401,38.0303206 L6.4664401,38.1307206 C6.4664401,44.9983207 11.2788402,49.9607207 18.6476403,49.9607207 L24.5312404,49.9607207 Z M29.3312404,55.6003208 L18.6476403,55.5751208 C7.61924011,55.5751208 4.00000006e-05,47.9055207 4.00000006e-05,38.0303206 L4.00000006e-05,37.9299206 C4.00000006e-05,28.0547204 7.61924011,20.4855203 18.6476403,20.4855203 L44.5312407,20.4855203 L29.3312404,55.6003208 Z" id="Fill-2" fill="#FFFFFF"></path>
                <path d="M86.3998013,49.9607207 L75.9998011,26.0999204 L92.2834014,26.0999204 C99.6522015,26.0999204 104.464602,31.1627205 104.464602,38.0303206 L104.464602,38.1307206 C104.464602,44.9983207 99.6522015,49.9607207 92.2834014,49.9607207 L86.3998013,49.9607207 Z M81.5998012,55.6003208 L92.2834014,55.5751208 C103.311802,55.5751208 110.931002,47.9055207 110.931002,38.0303206 L110.931002,37.9299206 C110.931002,28.0547204 103.311802,20.4855203 92.2834014,20.4855203 L66.399801,20.4855203 L81.5998012,55.6003208 Z" id="Fill-4" fill="#FFFFFF"></path>
                <polygon id="Fill-6" fill="#55B8B3" points="48.3152407 57.6001609 46.9312407 61.9497609 51.2312408 59.5769609 55.5312408 61.3565609 59.8312409 59.5769609 64.131241 61.9497609 62.5496409 57.6001609"></polygon>
            </g>
        </g>
    </g>
</svg>